<svg width="1097" height="270" viewBox="0 0 1097 270" fill="none" xmlns="http://www.w3.org/2000/svg">
<g clip-path="url(#clip0_14_141)">
<path fill-rule="evenodd" clip-rule="evenodd" d="M627.399 41.1451C617.014 41.1451 608.946 48.7546 608.946 58.8905C608.946 69.267 617.254 76.6358 627.399 76.6358C637.544 76.6358 645.852 69.0264 645.852 58.8905C645.852 48.7546 637.784 41.1451 627.399 41.1451ZM614.515 97.6295C618.489 98.8025 622.853 99.404 627.399 99.404V99.4341C631.914 99.4341 636.129 98.8626 640.223 97.5994C641.186 97.2986 642.209 97.9603 642.209 98.9829L642.27 216.433C642.27 217.155 641.668 217.756 640.945 217.756H613.853C613.13 217.756 612.528 217.155 612.528 216.433V99.013C612.528 97.9904 613.522 97.3287 614.515 97.6295ZM976.168 193.725C961.809 194.988 950.852 192.281 950.852 177.814V42.4685C950.852 41.7467 950.25 41.1451 949.527 41.1451H921.863C921.14 41.1451 920.538 41.7467 920.538 42.4685V177.484C920.538 197.725 926.499 217.997 956.18 219.23C963.528 219.541 968.939 218.367 971.442 217.824L971.638 217.781L971.786 217.749L971.893 217.726C972.526 217.606 972.917 217.366 973.128 216.373L977.553 194.958C977.733 194.056 976.981 193.635 976.168 193.725ZM1045.52 234.991L1096.91 101.479C1097.24 100.607 1096.61 99.7048 1095.68 99.7048H1067.74C1067.17 99.7048 1066.69 100.066 1066.51 100.577L1040.53 173.483C1038.54 179.168 1037.79 182.146 1036.58 188.251C1036.58 188.402 1036.43 188.492 1036.28 188.492C1036.28 188.492 1036.01 188.371 1035.98 188.251C1035.02 182.416 1034.48 179.649 1032.28 173.483L1005.82 100.577C1005.64 100.066 1005.13 99.7048 1004.58 99.7048H974.422C973.489 99.7048 972.857 100.637 973.188 101.509L1021.56 221.757C1021.68 222.088 1021.68 222.449 1021.56 222.749L1018.52 229.998C1014.52 239.261 1009.01 245.247 997.752 245.247C992.514 245.247 987.908 243.683 985.59 242.72C984.777 242.389 983.814 242.871 983.663 243.713L979.449 264.767C979.329 265.338 979.6 265.91 980.142 266.15C982.61 267.233 989.985 270 1000.28 270C1024.81 270 1038.09 254.751 1045.58 234.991H1045.52ZM895.824 165.964H816.263L816.293 165.934C815.51 165.934 814.878 166.656 815.029 167.438C818.22 184.131 830.14 195.439 850.309 195.439C866.293 195.439 875.415 188.401 880.622 182.567C881.134 181.965 882.067 181.965 882.609 182.536L896.366 197.394C896.787 197.876 896.818 198.567 896.426 199.079C887.245 210.418 870.237 219.23 847.058 219.23C807.744 219.23 783.963 194.477 783.963 158.956C783.963 123.435 807.473 98.1709 843.777 98.1709C878.304 98.1709 898.082 121.932 898.082 153.693C898.082 159.197 897.42 163.197 897.058 164.972C896.938 165.573 896.426 165.964 895.824 165.964ZM869.244 147.347C868.461 132.549 858.828 121.932 843.747 121.932V121.902C828.966 121.902 818.159 131.526 814.999 147.136C814.818 147.948 815.45 148.67 816.263 148.67H867.949C868.672 148.67 869.274 148.068 869.244 147.347ZM736.551 139.436C736.431 140.309 737.153 141.151 738.056 141.091L762.379 139.527C762.921 139.497 763.403 139.136 763.523 138.594C763.824 137.331 764.306 134.744 764.306 131.466C764.306 112.217 744.769 98.201 716.503 98.201C686.701 98.201 667.195 112.698 667.195 134.714C667.195 160.34 691.066 166.325 710.542 171.198L710.634 171.22C723.989 174.579 735.257 177.412 735.257 185.755C735.257 192.522 728.514 197.003 714.727 197.003C698.411 197.003 682.938 187.529 678.001 183.649C677.399 183.168 676.526 183.258 676.045 183.83L662.047 201.034C661.836 201.304 661.867 201.665 662.137 201.876C667.014 205.936 683.059 219.26 715.509 219.26C747.96 219.26 766.323 205.756 766.323 184.492C766.022 158.477 742.936 153.693 723.34 149.633L723.336 149.632C708.827 146.625 696.244 144.008 696.244 133.481C696.244 125.481 703.017 119.736 715.509 119.736C728.002 119.736 736.792 126.233 736.792 136.489C736.792 137.481 736.702 138.534 736.611 139.466L736.551 139.436ZM589.379 194.507C589.319 193.695 588.597 193.154 587.784 193.274C586.971 193.394 586.098 193.484 585.346 193.484C580.589 193.484 578.572 191.259 578.603 185.544V100.998C578.633 100.276 578.061 99.6747 577.338 99.6747H555.664C555.183 99.6747 554.731 99.9454 554.52 100.397C552.142 105.48 551.39 112.006 551.54 115.615C551.54 115.796 551.42 115.916 551.239 115.916C551.119 115.916 551.029 115.856 550.968 115.736C545.098 101.509 529.535 98.1709 518.247 98.1709C485.315 98.1709 459.938 123.736 461.564 163.949C462.858 196.101 486.248 219.26 513.039 219.26C529.896 219.26 540.944 211.29 547.567 200.883C548.319 199.71 550.457 200.162 550.728 201.515C552.925 212.824 560.993 219.26 575.412 219.26C580.683 219.26 585.275 217.882 588.016 217.06C588.688 216.858 589.248 216.69 589.68 216.584C590.282 216.433 590.674 215.892 590.613 215.26L589.349 194.477L589.379 194.507ZM519.902 193.936C504.881 193.936 493.864 180.792 492.539 163.949C490.522 137.993 501.419 123.736 519.933 123.736C538.446 123.736 547.898 134.985 548.5 157.603C549.102 180.221 537.663 193.936 519.902 193.936ZM446.001 193.725C446.783 193.635 447.506 194.206 447.566 194.988L449.342 216.403C449.402 217.035 448.981 217.636 448.349 217.757C446.121 218.238 440.462 219.26 432.665 219.26C406.773 219.26 398.395 202.392 390.485 186.465L390.461 186.416L390.456 186.407C383.414 172.184 376.76 158.746 358.342 158.746H350.154C349.431 158.746 348.829 159.347 348.829 160.069V216.493C348.829 217.215 348.227 217.817 347.505 217.817H318.606C317.884 217.817 317.282 217.215 317.282 216.493V53.5669C317.282 52.8451 317.884 52.2435 318.606 52.2435H371.617C413.159 52.2435 435.946 68.7256 435.946 106.502C435.946 128.458 424.086 144.008 404.278 152.099C403.165 152.55 402.984 154.024 403.977 154.685C410.812 159.178 415.02 166.684 419.068 173.905L419.119 173.995C424.838 184.251 430.317 193.966 442.448 193.966C443.833 193.966 445.097 193.845 446.001 193.725ZM350.124 135.947H367.342C389.107 135.947 404.64 125.992 404.64 106.743C404.64 87.4936 392.117 77.478 369.841 77.478H350.124C349.401 77.478 348.799 78.0796 348.799 78.8014V134.624C348.799 135.346 349.401 135.947 350.124 135.947Z" fill="#262861"/>
<path d="M119.297 15.79C53.5225 15.79 0 69.2667 0 135.015C0 200.763 53.5225 254.209 119.297 254.209C185.071 254.209 238.593 200.733 238.593 135.015C238.593 69.2967 185.071 15.79 119.297 15.79ZM126.04 41.2952C171.826 44.5134 209.123 81.2072 212.976 126.924C214.812 148.73 209.123 169.182 198.256 185.935C197.895 186.476 197.142 186.536 196.691 186.055L121.103 100.366C120.29 99.4638 118.875 99.4638 118.093 100.366L42.1437 186.416C41.7222 186.897 40.9396 186.837 40.6084 186.326C30.9455 171.558 25.3163 153.933 25.3163 135.015C25.3163 80.9966 71.1229 37.4453 126 41.2952H126.04ZM59.7236 204.673L118.845 137.661C119.237 137.24 119.899 137.24 120.29 137.661L180.646 206.056C164.15 220.283 142.717 228.915 119.297 228.915C95.8769 228.915 76.1596 220.974 59.9945 207.771C59.0313 206.989 58.9409 205.575 59.7537 204.643L59.7236 204.673Z" fill="#6138D8"/>
</g>
<defs>
<clipPath id="clip0_14_141">
<rect width="1097" height="270" fill="white"/>
</clipPath>
</defs>
</svg>
